<?xml version="1.0" encoding="UTF-8"?>
<svg xmlns="http://www.w3.org/2000/svg" xmlns:xlink="http://www.w3.org/1999/xlink" width="906.3pt" height="232.1pt" viewBox="0 0 906.3 232.1" version="1.1">
<defs>
<clipPath id="clip1">
  <path d="M 878 57 L 906.300781 57 L 906.300781 175 L 878 175 Z M 878 57 "/>
</clipPath>
<clipPath id="clip2">
  <path d="M 0 0 L 266 0 L 266 232.101563 L 0 232.101563 Z M 0 0 "/>
</clipPath>
</defs>
<g id="surface1">
<path style=" stroke:none;fill-rule:evenodd;fill:rgb(0%,26.268005%,58.006287%);fill-opacity:1;" d="M 768.5 80.078125 L 799.421875 80.078125 L 799.421875 174.195313 L 827.867188 174.195313 L 827.867188 80.078125 L 858.621094 80.078125 L 858.621094 57.859375 L 768.5 57.859375 Z M 768.5 80.078125 "/>
<path style=" stroke:none;fill-rule:evenodd;fill:rgb(0%,26.268005%,58.006287%);fill-opacity:1;" d="M 386.234375 55.726563 C 357.492188 55.726563 345.078125 71.5625 341.074219 78.371094 L 340.433594 79.449219 L 340.433594 102.902344 L 341.164063 104.046875 C 345.78125 111.226563 352.839844 119.359375 378.386719 125.03125 L 389.453125 127.464844 C 399.199219 129.648438 402.433594 132.371094 404.269531 135.019531 L 404.269531 145.484375 C 401.449219 149.503906 395.324219 153.65625 386.230469 153.65625 C 374.910156 153.65625 369.789063 147.847656 368.203125 145.511719 L 368.203125 130.953125 L 340.429688 130.960938 L 340.429688 152.46875 L 341.082031 153.5625 C 345.191406 160.402344 357.808594 176.339844 386.230469 176.339844 C 413.535156 176.339844 426.136719 162.058594 431.222656 153.5625 L 431.878906 152.46875 L 431.878906 126.472656 L 431.175781 125.359375 C 425.714844 116.488281 417.382813 109.484375 394.484375 104.136719 L 383.378906 101.546875 C 372.660156 99.089844 369.777344 96.523438 368.199219 94.269531 L 368.199219 86.386719 C 370.953125 82.386719 377.042969 78.253906 386.230469 78.253906 C 395.5625 78.253906 401.703125 82.539063 404.265625 86.347656 L 404.265625 99.574219 L 431.882813 99.574219 L 431.882813 79.449219 L 431.238281 78.359375 C 427.222656 71.554688 414.796875 55.726563 386.234375 55.726563 Z M 386.234375 55.726563 "/>
<path style=" stroke:none;fill-rule:evenodd;fill:rgb(0%,26.268005%,58.006287%);fill-opacity:1;" d="M 622.058594 128.070313 L 583.277344 57.859375 L 552.757813 57.859375 L 552.757813 174.195313 L 579.859375 174.195313 L 579.859375 103.695313 L 618.8125 174.195313 L 649.316406 174.195313 L 649.316406 57.859375 L 622.058594 57.859375 Z M 622.058594 128.070313 "/>
<g clip-path="url(#clip1)" clip-rule="nonzero">
<path style=" stroke:none;fill-rule:evenodd;fill:rgb(0%,26.268005%,58.006287%);fill-opacity:1;" d="M 878.109375 174.195313 L 906.363281 174.195313 L 906.363281 57.859375 L 878.109375 57.859375 Z M 878.109375 174.195313 "/>
</g>
<path style=" stroke:none;fill-rule:evenodd;fill:rgb(0%,26.268005%,58.006287%);fill-opacity:1;" d="M 477.855469 125.613281 L 525.15625 125.613281 L 525.15625 103.410156 L 477.855469 103.410156 L 477.855469 80.078125 L 528.636719 80.078125 L 528.636719 57.859375 L 449.601563 57.859375 L 449.601563 174.195313 L 529.957031 174.195313 L 529.957031 151.988281 L 477.855469 151.988281 Z M 477.855469 125.613281 "/>
<path style=" stroke:none;fill-rule:evenodd;fill:rgb(0%,26.268005%,58.006287%);fill-opacity:1;" d="M 700.332031 57.859375 L 666.625 158.617188 L 666.550781 174.207031 L 689.855469 174.207031 L 699.488281 144.042969 L 699.765625 143.183594 L 733.875 143.183594 L 743.777344 174.207031 L 768.730469 174.207031 L 768.730469 159.101563 L 734.769531 57.863281 Z M 706.597656 122.179688 L 717.019531 89.921875 L 727.21875 122.179688 Z M 706.597656 122.179688 "/>
<g clip-path="url(#clip2)" clip-rule="nonzero">
<path style=" stroke:none;fill-rule:evenodd;fill:rgb(0%,26.268005%,58.006287%);fill-opacity:1;" d="M 236.832031 66.105469 L 236.46875 65.480469 L 236.105469 64.847656 L 96.699219 64.847656 L 79.035156 95.765625 L 96.699219 126.683594 L 153.941406 126.683594 L 159.464844 136.3125 L 155.109375 143.925781 L 86.835938 143.925781 L 59.316406 95.765625 L 86.835938 47.597656 L 226.257813 47.597656 L 225.894531 46.972656 L 225.53125 46.328125 L 210.199219 19.492188 L 210.203125 19.492188 L 199.0625 -0.0117188 L 66.382813 -0.0117188 L 0.0664063 116.035156 L 28.597656 165.964844 L 28.960938 166.589844 L 29.320313 167.222656 L 168.710938 167.222656 L 186.386719 136.304688 L 168.710938 105.378906 L 111.421875 105.382813 L 105.925781 95.765625 L 110.285156 88.136719 L 178.578125 88.136719 L 206.105469 136.304688 L 178.578125 184.476563 L 39.175781 184.476563 L 39.539063 185.101563 L 39.902344 185.742188 L 66.382813 232.085938 L 199.0625 232.085938 L 265.34375 116.035156 Z M 236.832031 66.105469 "/>
</g>
<path style=" stroke:none;fill-rule:evenodd;fill:rgb(0%,26.268005%,58.006287%);fill-opacity:1;" d="M 50.863281 186.816406 L 52.316406 186.816406 L 50.878906 196.015625 L 49.546875 196.015625 L 48.765625 191.003906 L 48.03125 196.015625 L 46.707031 196.015625 L 45.167969 186.816406 L 46.621094 186.816406 L 47.34375 191.742188 L 48.011719 186.816406 L 49.460938 186.816406 L 50.1875 191.742188 Z M 58.964844 186.816406 L 60.417969 186.816406 L 58.980469 196.015625 L 57.648438 196.015625 L 56.867188 191.003906 L 56.132813 196.015625 L 54.808594 196.015625 L 53.269531 186.816406 L 54.722656 186.816406 L 55.445313 191.742188 L 56.113281 186.816406 L 57.5625 186.816406 L 58.289063 191.742188 Z M 67.066406 186.816406 L 68.519531 186.816406 L 67.082031 196.015625 L 65.75 196.015625 L 64.96875 191.003906 L 64.234375 196.015625 L 62.910156 196.015625 L 61.371094 186.816406 L 62.824219 186.816406 L 63.550781 191.742188 L 64.214844 186.816406 L 65.664063 186.816406 L 66.390625 191.742188 Z M 69.46875 194.632813 L 70.851563 194.632813 L 70.851563 196.015625 L 69.46875 196.015625 Z M 71.808594 196.015625 L 71.808594 186.816406 L 73.882813 186.816406 C 74.433594 186.816406 74.925781 186.964844 75.371094 187.253906 C 75.746094 187.496094 76.015625 187.878906 76.179688 188.382813 C 76.265625 188.660156 76.308594 188.988281 76.308594 189.363281 C 76.308594 189.976563 76.144531 190.472656 75.820313 190.84375 C 75.679688 191.003906 75.519531 191.117188 75.332031 191.207031 C 75.636719 191.320313 75.894531 191.554688 76.109375 191.898438 C 76.253906 192.132813 76.355469 192.4375 76.425781 192.808594 C 76.457031 193.003906 76.472656 193.214844 76.472656 193.453125 C 76.472656 194.03125 76.367188 194.523438 76.148438 194.933594 C 75.976563 195.246094 75.734375 195.503906 75.421875 195.691406 C 75.066406 195.910156 74.71875 196.015625 74.371094 196.015625 Z M 73.304688 194.644531 L 73.882813 194.644531 C 74.355469 194.644531 74.679688 194.402344 74.859375 193.917969 C 74.921875 193.753906 74.957031 193.5625 74.957031 193.347656 C 74.957031 192.835938 74.855469 192.460938 74.660156 192.21875 C 74.484375 192.003906 74.226563 191.898438 73.882813 191.898438 L 73.304688 191.898438 Z M 73.304688 190.578125 L 73.882813 190.578125 C 74.316406 190.578125 74.605469 190.367188 74.75 189.945313 C 74.804688 189.785156 74.832031 189.59375 74.832031 189.363281 C 74.832031 188.976563 74.738281 188.6875 74.554688 188.496094 C 74.382813 188.3125 74.160156 188.222656 73.882813 188.222656 L 73.304688 188.222656 Z M 77.675781 196.015625 L 77.675781 186.816406 L 81.621094 186.816406 L 81.621094 188.203125 L 79.058594 188.203125 L 79.058594 190.730469 L 80.929688 190.730469 L 80.929688 192.113281 L 79.058594 192.113281 L 79.058594 194.632813 L 81.621094 194.632813 L 81.621094 196.015625 Z M 83.960938 192.128906 L 83.960938 196.015625 L 82.578125 196.015625 L 82.578125 186.816406 L 83.960938 186.816406 L 83.960938 190.730469 L 85.632813 190.730469 L 85.632813 186.816406 L 87.015625 186.816406 L 87.015625 196.015625 L 85.632813 196.015625 L 85.632813 192.128906 Z M 89.96875 193.898438 L 89.628906 196.015625 L 88.1875 196.015625 L 89.746094 186.816406 L 91.65625 186.816406 L 93.195313 196.015625 L 91.742188 196.015625 L 91.414063 193.898438 Z M 90.691406 188.921875 L 90.179688 192.546875 L 91.207031 192.546875 Z M 95.917969 186.816406 L 97.757813 192.996094 L 97.757813 186.816406 L 99.140625 186.816406 L 99.140625 196.015625 L 97.652344 196.015625 L 95.742188 190.128906 L 95.742188 196.015625 L 94.359375 196.015625 L 94.359375 186.816406 Z M 102.554688 196.128906 C 101.941406 196.128906 101.421875 195.917969 100.996094 195.488281 C 100.566406 195.0625 100.351563 194.546875 100.351563 193.9375 L 100.351563 188.902344 C 100.351563 188.292969 100.566406 187.773438 101 187.34375 C 101.429688 186.917969 101.949219 186.707031 102.554688 186.707031 C 103.167969 186.707031 103.6875 186.917969 104.113281 187.351563 C 104.539063 187.78125 104.75 188.296875 104.75 188.902344 L 104.75 189.957031 L 103.316406 189.957031 L 103.316406 188.878906 C 103.316406 188.65625 103.238281 188.46875 103.082031 188.3125 C 102.925781 188.152344 102.734375 188.082031 102.511719 188.082031 C 102.292969 188.082031 102.105469 188.152344 101.949219 188.3125 C 101.792969 188.46875 101.714844 188.65625 101.714844 188.878906 L 101.714844 193.921875 C 101.714844 194.140625 101.792969 194.335938 101.949219 194.484375 C 102.105469 194.636719 102.292969 194.714844 102.511719 194.714844 C 102.734375 194.714844 102.925781 194.636719 103.082031 194.484375 C 103.238281 194.332031 103.316406 194.140625 103.316406 193.917969 L 103.316406 192.652344 L 104.75 192.652344 L 104.75 193.933594 C 104.75 194.546875 104.535156 195.066406 104.105469 195.492188 C 103.675781 195.917969 103.15625 196.128906 102.554688 196.128906 Z M 105.878906 196.015625 L 105.878906 186.816406 L 109.824219 186.816406 L 109.824219 188.203125 L 107.261719 188.203125 L 107.261719 190.730469 L 109.132813 190.730469 L 109.132813 192.113281 L 107.261719 192.113281 L 107.261719 194.632813 L 109.824219 194.632813 L 109.824219 196.015625 Z M 110.78125 194.632813 L 112.164063 194.632813 L 112.164063 196.015625 L 110.78125 196.015625 Z M 114.675781 186.816406 L 116.515625 192.996094 L 116.515625 186.816406 L 117.898438 186.816406 L 117.898438 196.015625 L 116.410156 196.015625 L 114.5 190.128906 L 114.5 196.015625 L 113.117188 196.015625 L 113.117188 186.816406 Z M 119.136719 196.015625 L 119.136719 186.816406 L 123.082031 186.816406 L 123.082031 188.203125 L 120.519531 188.203125 L 120.519531 190.730469 L 122.390625 190.730469 L 122.390625 192.113281 L 120.519531 192.113281 L 120.519531 194.632813 L 123.082031 194.632813 L 123.082031 196.015625 Z M 125.515625 188.203125 L 124.042969 188.203125 L 124.042969 186.816406 L 128.363281 186.816406 L 128.363281 188.203125 L 126.898438 188.203125 L 126.898438 196.015625 L 125.515625 196.015625 Z M 133.152344 186.394531 L 134.28125 186.394531 L 130.449219 196.453125 L 129.320313 196.453125 Z M 137.019531 193.898438 L 136.679688 196.015625 L 135.238281 196.015625 L 136.796875 186.816406 L 138.707031 186.816406 L 140.246094 196.015625 L 138.792969 196.015625 L 138.464844 193.898438 Z M 137.742188 188.921875 L 137.230469 192.546875 L 138.257813 192.546875 Z M 142.96875 186.816406 L 144.808594 192.996094 L 144.808594 186.816406 L 146.191406 186.816406 L 146.191406 196.015625 L 144.703125 196.015625 L 142.792969 190.128906 L 142.792969 196.015625 L 141.410156 196.015625 L 141.410156 186.816406 Z M 148.78125 188.203125 L 147.308594 188.203125 L 147.308594 186.816406 L 151.632813 186.816406 L 151.632813 188.203125 L 150.164063 188.203125 L 150.164063 196.015625 L 148.78125 196.015625 Z M 154.773438 186.714844 C 155.386719 186.714844 155.90625 186.929688 156.335938 187.359375 C 156.765625 187.789063 156.980469 188.308594 156.980469 188.914063 L 156.980469 193.929688 C 156.980469 194.539063 156.765625 195.058594 156.335938 195.488281 C 155.902344 195.917969 155.382813 196.128906 154.773438 196.128906 C 154.164063 196.128906 153.648438 195.914063 153.222656 195.484375 C 152.796875 195.054688 152.582031 194.535156 152.582031 193.929688 L 152.582031 188.914063 C 152.582031 188.304688 152.796875 187.785156 153.230469 187.355469 C 153.660156 186.925781 154.175781 186.714844 154.773438 186.714844 Z M 155.535156 188.886719 C 155.535156 188.664063 155.457031 188.480469 155.304688 188.328125 C 155.152344 188.171875 154.960938 188.097656 154.738281 188.097656 C 154.519531 188.097656 154.328125 188.171875 154.171875 188.328125 C 154.015625 188.480469 153.933594 188.664063 153.933594 188.886719 L 153.933594 193.914063 C 153.933594 194.132813 154.015625 194.320313 154.171875 194.472656 C 154.328125 194.628906 154.519531 194.710938 154.738281 194.710938 C 154.960938 194.710938 155.152344 194.628906 155.304688 194.472656 C 155.457031 194.320313 155.535156 194.132813 155.535156 193.914063 Z M 159.75 186.816406 L 161.585938 192.996094 L 161.585938 186.816406 L 162.96875 186.816406 L 162.96875 196.015625 L 161.484375 196.015625 L 159.574219 190.128906 L 159.574219 196.015625 L 158.1875 196.015625 L 158.1875 186.816406 Z M 165.59375 196.015625 L 164.210938 196.015625 L 164.210938 186.816406 L 165.59375 186.816406 Z M 169.011719 186.714844 C 169.625 186.714844 170.144531 186.929688 170.578125 187.359375 C 171.003906 187.789063 171.21875 188.308594 171.21875 188.914063 L 171.21875 193.929688 C 171.21875 194.539063 171.003906 195.058594 170.574219 195.488281 C 170.140625 195.917969 169.621094 196.128906 169.011719 196.128906 C 168.402344 196.128906 167.886719 195.914063 167.460938 195.484375 C 167.035156 195.054688 166.820313 194.535156 166.820313 193.929688 L 166.820313 188.914063 C 166.820313 188.304688 167.035156 187.785156 167.46875 187.355469 C 167.898438 186.925781 168.414063 186.714844 169.011719 186.714844 Z M 169.773438 188.886719 C 169.773438 188.664063 169.695313 188.480469 169.542969 188.328125 C 169.390625 188.171875 169.199219 188.097656 168.976563 188.097656 C 168.757813 188.097656 168.566406 188.171875 168.410156 188.328125 C 168.253906 188.480469 168.175781 188.664063 168.175781 188.886719 L 168.175781 193.914063 C 168.175781 194.132813 168.253906 194.320313 168.410156 194.472656 C 168.566406 194.628906 168.757813 194.710938 168.976563 194.710938 C 169.199219 194.710938 169.390625 194.628906 169.542969 194.472656 C 169.695313 194.320313 169.773438 194.132813 169.773438 193.914063 Z M 173.820313 192.128906 L 173.820313 196.015625 L 172.4375 196.015625 L 172.4375 186.816406 L 173.820313 186.816406 L 173.820313 190.730469 L 175.496094 190.730469 L 175.496094 186.816406 L 176.878906 186.816406 L 176.878906 196.015625 L 175.496094 196.015625 L 175.496094 192.128906 Z M 179.507813 196.015625 L 178.125 196.015625 L 178.125 186.816406 L 182.070313 186.816406 L 182.070313 188.203125 L 179.507813 188.203125 L 179.507813 190.730469 L 181.378906 190.730469 L 181.378906 192.113281 L 179.507813 192.113281 Z M 185.21875 196.128906 C 184.609375 196.128906 184.09375 195.917969 183.664063 195.492188 C 183.238281 195.066406 183.027344 194.550781 183.027344 193.945313 L 183.027344 186.816406 L 184.378906 186.816406 L 184.378906 193.933594 C 184.378906 194.152344 184.457031 194.339844 184.613281 194.492188 C 184.773438 194.648438 184.960938 194.726563 185.183594 194.726563 C 185.40625 194.726563 185.59375 194.648438 185.75 194.492188 C 185.902344 194.339844 185.980469 194.152344 185.980469 193.933594 L 185.980469 186.816406 L 187.425781 186.816406 L 187.425781 193.945313 C 187.425781 194.5625 187.210938 195.085938 186.777344 195.503906 C 186.347656 195.921875 185.828125 196.128906 185.21875 196.128906 Z M 188.648438 196.015625 L 188.648438 186.816406 L 192.59375 186.816406 L 192.59375 188.203125 L 190.03125 188.203125 L 190.03125 190.730469 L 191.902344 190.730469 L 191.902344 192.113281 L 190.03125 192.113281 L 190.03125 194.632813 L 192.59375 194.632813 L 192.59375 196.015625 Z M 195.109375 186.816406 L 196.945313 192.996094 L 196.945313 186.816406 L 198.332031 186.816406 L 198.332031 196.015625 L 196.84375 196.015625 L 194.933594 190.128906 L 194.933594 196.015625 L 193.550781 196.015625 L 193.550781 186.816406 Z M 200.921875 188.203125 L 199.449219 188.203125 L 199.449219 186.816406 L 203.769531 186.816406 L 203.769531 188.203125 L 202.304688 188.203125 L 202.304688 196.015625 L 200.921875 196.015625 Z M 204.882813 196.015625 L 204.882813 186.816406 L 208.828125 186.816406 L 208.828125 188.203125 L 206.265625 188.203125 L 206.265625 190.730469 L 208.136719 190.730469 L 208.136719 192.113281 L 206.265625 192.113281 L 206.265625 194.632813 L 208.828125 194.632813 L 208.828125 196.015625 Z M 214.378906 193.734375 C 214.390625 194.378906 214.222656 194.921875 213.878906 195.378906 C 213.652344 195.683594 213.335938 195.898438 212.921875 196.023438 C 212.703125 196.097656 212.445313 196.128906 212.152344 196.128906 C 211.605469 196.128906 211.15625 195.996094 210.800781 195.726563 C 210.503906 195.503906 210.269531 195.207031 210.09375 194.828125 C 209.921875 194.445313 209.820313 194.007813 209.792969 193.511719 L 211.109375 193.421875 C 211.167969 193.960938 211.3125 194.34375 211.535156 194.585938 C 211.703125 194.765625 211.890625 194.851563 212.105469 194.839844 C 212.410156 194.832031 212.652344 194.679688 212.832031 194.398438 C 212.925781 194.253906 212.976563 194.050781 212.976563 193.789063 C 212.976563 193.402344 212.800781 193.019531 212.457031 192.644531 C 212.179688 192.386719 211.769531 192.003906 211.21875 191.480469 C 210.761719 191.039063 210.433594 190.640625 210.246094 190.289063 C 210.042969 189.890625 209.9375 189.464844 209.9375 189.003906 C 209.9375 188.164063 210.21875 187.53125 210.78125 187.101563 C 211.128906 186.84375 211.558594 186.714844 212.074219 186.714844 C 212.570313 186.714844 212.992188 186.828125 213.347656 187.046875 C 213.621094 187.21875 213.839844 187.460938 214.007813 187.769531 C 214.175781 188.082031 214.28125 188.429688 214.316406 188.835938 L 212.976563 189.078125 C 212.9375 188.695313 212.832031 188.402344 212.652344 188.195313 C 212.527344 188.039063 212.339844 187.964844 212.105469 187.964844 C 211.851563 187.964844 211.660156 188.078125 211.527344 188.300781 C 211.417969 188.480469 211.363281 188.710938 211.363281 188.976563 C 211.363281 189.394531 211.546875 189.828125 211.910156 190.257813 C 212.046875 190.425781 212.253906 190.617188 212.527344 190.84375 C 212.847656 191.113281 213.0625 191.300781 213.167969 191.40625 C 213.507813 191.753906 213.773438 192.089844 213.960938 192.421875 C 214.046875 192.578125 214.117188 192.71875 214.171875 192.851563 C 214.304688 193.175781 214.371094 193.472656 214.378906 193.734375 Z M 214.378906 193.734375 "/>
</g>
</svg>
